<svg xmlns="http://www.w3.org/2000/svg" viewBox="0 8.859999656677246 443.989990234375 46.34000015258789" data-asc="0.9052734375" width="443.989990234375" height="46.34000015258789"><defs/><g fill="#000000"><g transform="translate(0, 0)"><path d="M0 45.26L0 9.47L24.15 9.47L24.15 13.70L4.74 13.70L4.74 24.78L21.53 24.78L21.53 29.00L4.74 29.00L4.74 45.26L0 45.26ZM46.73 45.26L46.73 41.46Q43.70 45.85 38.50 45.85Q36.21 45.85 34.22 44.97Q32.23 44.09 31.26 42.76Q30.30 41.43 29.91 39.50Q29.64 38.21 29.64 35.40L29.64 19.34L34.03 19.34L34.03 33.72Q34.03 37.16 34.30 38.35Q34.72 40.09 36.06 41.08Q37.40 42.07 39.38 42.07Q41.36 42.07 43.09 41.05Q44.82 40.04 45.54 38.29Q46.26 36.55 46.26 33.23L46.26 19.34L50.66 19.34L50.66 45.26L46.73 45.26ZM57.45 45.26L57.45 9.47L61.84 9.47L61.84 45.26L57.45 45.26ZM68.55 45.26L68.55 9.47L72.95 9.47L72.95 45.26L68.55 45.26ZM78.71 33.76L83.18 33.37Q83.50 36.06 84.66 37.78Q85.82 39.50 88.26 40.56Q90.70 41.63 93.75 41.63Q96.46 41.63 98.54 40.82Q100.61 40.01 101.62 38.61Q102.64 37.21 102.64 35.55Q102.64 33.86 101.66 32.60Q100.68 31.35 98.44 30.49Q97.00 29.93 92.07 28.75Q87.13 27.56 85.16 26.51Q82.59 25.17 81.34 23.18Q80.08 21.19 80.08 18.73Q80.08 16.02 81.62 13.66Q83.15 11.30 86.11 10.08Q89.06 8.86 92.68 8.86Q96.66 8.86 99.69 10.14Q102.73 11.43 104.37 13.92Q106.01 16.41 106.13 19.56L101.59 19.90Q101.22 16.50 99.11 14.77Q97.00 13.04 92.87 13.04Q88.57 13.04 86.61 14.61Q84.64 16.19 84.64 18.41Q84.64 20.34 86.04 21.58Q87.40 22.83 93.18 24.13Q98.95 25.44 101.10 26.42Q104.22 27.86 105.71 30.07Q107.20 32.28 107.20 35.16Q107.20 38.01 105.57 40.54Q103.93 43.07 100.87 44.47Q97.80 45.87 93.97 45.87Q89.11 45.87 85.83 44.46Q82.54 43.04 80.68 40.20Q78.81 37.35 78.71 33.76ZM122.71 41.33L123.34 45.21Q121.48 45.61 120.02 45.61Q117.63 45.61 116.31 44.85Q114.99 44.09 114.45 42.86Q113.92 41.63 113.92 37.67L113.92 22.75L110.69 22.75L110.69 19.34L113.92 19.34L113.92 12.92L118.29 10.28L118.29 19.34L122.71 19.34L122.71 22.75L118.29 22.75L118.29 37.92Q118.29 39.79 118.52 40.33Q118.75 40.87 119.27 41.19Q119.80 41.50 120.78 41.50Q121.51 41.50 122.71 41.33ZM143.92 42.07Q141.48 44.14 139.22 45.00Q136.96 45.85 134.38 45.85Q130.10 45.85 127.81 43.76Q125.51 41.67 125.51 38.43Q125.51 36.52 126.38 34.95Q127.25 33.37 128.65 32.42Q130.05 31.47 131.81 30.98Q133.11 30.64 135.72 30.32Q141.04 29.69 143.55 28.81Q143.58 27.91 143.58 27.66Q143.58 24.98 142.33 23.88Q140.65 22.39 137.33 22.39Q134.23 22.39 132.75 23.47Q131.27 24.56 130.57 27.32L126.27 26.73Q126.86 23.97 128.20 22.28Q129.54 20.58 132.08 19.67Q134.62 18.75 137.96 18.75Q141.28 18.75 143.36 19.53Q145.43 20.31 146.41 21.50Q147.39 22.68 147.78 24.49Q148.00 25.61 148.00 28.54L148.00 34.40Q148.00 40.53 148.28 42.15Q148.56 43.77 149.39 45.26L144.80 45.26Q144.12 43.90 143.92 42.07M143.55 32.25Q141.16 33.23 136.38 33.91Q133.67 34.30 132.54 34.79Q131.42 35.28 130.81 36.22Q130.20 37.16 130.20 38.31Q130.20 40.06 131.53 41.24Q132.86 42.41 135.42 42.41Q137.96 42.41 139.94 41.30Q141.92 40.19 142.85 38.26Q143.55 36.77 143.55 33.86L143.55 32.25ZM171.73 35.77L176.05 36.33Q175.34 40.80 172.42 43.32Q169.51 45.85 165.26 45.85Q159.94 45.85 156.70 42.37Q153.47 38.89 153.47 32.40Q153.47 28.20 154.86 25.05Q156.25 21.90 159.09 20.32Q161.94 18.75 165.28 18.75Q169.51 18.75 172.19 20.89Q174.88 23.02 175.63 26.95L171.36 27.61Q170.75 25 169.20 23.68Q167.65 22.36 165.45 22.36Q162.13 22.36 160.06 24.74Q157.98 27.12 157.98 32.28Q157.98 37.50 159.99 39.87Q161.99 42.24 165.21 42.24Q167.80 42.24 169.53 40.65Q171.26 39.06 171.73 35.77ZM179.83 45.26L179.83 9.47L184.23 9.47L184.23 29.88L194.63 19.34L200.32 19.34L190.41 28.96L201.32 45.26L195.90 45.26L187.33 32.01L184.23 34.99L184.23 45.26L179.83 45.26ZM219.26 45.26L219.26 9.47L231.59 9.47Q235.77 9.47 237.96 9.99Q241.04 10.69 243.21 12.55Q246.04 14.94 247.45 18.66Q248.85 22.39 248.85 27.17Q248.85 31.25 247.90 34.40Q246.95 37.55 245.46 39.61Q243.97 41.67 242.20 42.86Q240.43 44.04 237.93 44.65Q235.42 45.26 232.18 45.26L219.26 45.26M224.00 41.04L231.64 41.04Q235.18 41.04 237.19 40.38Q239.21 39.72 240.41 38.53Q242.09 36.84 243.03 34.00Q243.97 31.15 243.97 27.10Q243.97 21.48 242.13 18.47Q240.28 15.45 237.65 14.43Q235.74 13.70 231.52 13.70L224.00 13.70L224.00 41.04ZM272.56 36.91L277.10 37.48Q276.03 41.46 273.12 43.65Q270.21 45.85 265.70 45.85Q260.01 45.85 256.68 42.35Q253.34 38.84 253.34 32.52Q253.34 25.98 256.71 22.36Q260.08 18.75 265.45 18.75Q270.65 18.75 273.95 22.29Q277.25 25.83 277.25 32.25Q277.25 32.64 277.22 33.42L257.89 33.42Q258.13 37.70 260.30 39.97Q262.48 42.24 265.72 42.24Q268.14 42.24 269.85 40.97Q271.56 39.70 272.56 36.91M258.13 29.81L272.61 29.81Q272.31 26.54 270.95 24.90Q268.85 22.36 265.50 22.36Q262.48 22.36 260.41 24.39Q258.35 26.42 258.13 29.81ZM289.82 45.26L279.96 19.34L284.59 19.34L290.16 34.86Q291.06 37.38 291.82 40.09Q292.41 38.04 293.46 35.16L299.22 19.34L303.74 19.34L293.92 45.26L289.82 45.26ZM325.37 36.91L329.91 37.48Q328.83 41.46 325.93 43.65Q323.02 45.85 318.51 45.85Q312.82 45.85 309.48 42.35Q306.15 38.84 306.15 32.52Q306.15 25.98 309.52 22.36Q312.89 18.75 318.26 18.75Q323.46 18.75 326.76 22.29Q330.05 25.83 330.05 32.25Q330.05 32.64 330.03 33.42L310.69 33.42Q310.94 37.70 313.11 39.97Q315.28 42.24 318.53 42.24Q320.95 42.24 322.66 40.97Q324.37 39.70 325.37 36.91M310.94 29.81L325.42 29.81Q325.12 26.54 323.75 24.90Q321.66 22.36 318.31 22.36Q315.28 22.36 313.22 24.39Q311.16 26.42 310.94 29.81ZM335.33 45.26L335.33 9.47L339.72 9.47L339.72 45.26L335.33 45.26ZM344.90 32.30Q344.90 25.10 348.90 21.63Q352.25 18.75 357.06 18.75Q362.40 18.75 365.80 22.25Q369.19 25.76 369.19 31.93Q369.19 36.94 367.69 39.81Q366.19 42.68 363.32 44.26Q360.45 45.85 357.06 45.85Q351.61 45.85 348.25 42.36Q344.90 38.87 344.90 32.30M349.41 32.30Q349.41 37.28 351.59 39.76Q353.76 42.24 357.06 42.24Q360.33 42.24 362.50 39.75Q364.67 37.26 364.67 32.15Q364.67 27.34 362.49 24.87Q360.30 22.39 357.06 22.39Q353.76 22.39 351.59 24.85Q349.41 27.32 349.41 32.30ZM374.34 55.20L374.34 19.34L378.34 19.34L378.34 22.71Q379.76 20.73 381.54 19.74Q383.33 18.75 385.86 18.75Q389.18 18.75 391.72 20.46Q394.26 22.17 395.56 25.28Q396.85 28.39 396.85 32.10Q396.85 36.08 395.42 39.27Q393.99 42.46 391.27 44.15Q388.55 45.85 385.55 45.85Q383.35 45.85 381.60 44.92Q379.86 43.99 378.74 42.58L378.74 55.20L374.34 55.20M378.32 32.45Q378.32 37.45 380.35 39.84Q382.37 42.24 385.25 42.24Q388.18 42.24 390.27 39.76Q392.36 37.28 392.36 32.08Q392.36 27.12 390.32 24.66Q388.28 22.19 385.45 22.19Q382.64 22.19 380.48 24.82Q378.32 27.44 378.32 32.45ZM419.90 36.91L424.44 37.48Q423.36 41.46 420.46 43.65Q417.55 45.85 413.04 45.85Q407.35 45.85 404.02 42.35Q400.68 38.84 400.68 32.52Q400.68 25.98 404.05 22.36Q407.42 18.75 412.79 18.75Q417.99 18.75 421.29 22.29Q424.58 25.83 424.58 32.25Q424.58 32.64 424.56 33.42L405.22 33.42Q405.47 37.70 407.64 39.97Q409.81 42.24 413.06 42.24Q415.48 42.24 417.19 40.97Q418.90 39.70 419.90 36.91M405.47 29.81L419.95 29.81Q419.65 26.54 418.29 24.90Q416.19 22.36 412.84 22.36Q409.81 22.36 407.75 24.39Q405.69 26.42 405.47 29.81ZM429.91 45.26L429.91 19.34L433.86 19.34L433.86 23.27Q435.38 20.51 436.66 19.63Q437.94 18.75 439.48 18.75Q441.70 18.75 443.99 20.17L442.48 24.24Q440.87 23.29 439.26 23.29Q437.82 23.29 436.67 24.16Q435.52 25.02 435.03 26.56Q434.30 28.91 434.30 31.69L434.30 45.26L429.91 45.26Z"/></g></g></svg>